Benzinova-Thin-ExtraCondensed.ufo
<glyph name="three" format="1">
  <advance width="616.0"/>
  <unicode hex="0033"/>
  <outline>
    <contour>
      <point x="335" y="716" type="curve" smooth="yes"/>
      <point x="326" y="715"/>
      <point x="320" y="706"/>
      <point x="321" y="698" type="curve" smooth="yes"/>
      <point x="322" y="689"/>
      <point x="331" y="683"/>
      <point x="339" y="684" type="curve" smooth="yes"/>
      <point x="450" y="699"/>
      <point x="537" y="795"/>
      <point x="537" y="910" type="curve" smooth="yes"/>
      <point x="537" y="1004" type="line" smooth="yes"/>
      <point x="537" y="1130"/>
      <point x="434" y="1232"/>
      <point x="309" y="1232" type="curve" smooth="yes"/>
      <point x="307" y="1232" type="line" smooth="yes"/>
      <point x="181" y="1232"/>
      <point x="79" y="1130"/>
      <point x="79" y="1004" type="curve" smooth="yes"/>
      <point x="79" y="995"/>
      <point x="86" y="988"/>
      <point x="95" y="988" type="curve" smooth="yes"/>
      <point x="104" y="988"/>
      <point x="111" y="995"/>
      <point x="111" y="1004" type="curve" smooth="yes"/>
      <point x="111" y="1112"/>
      <point x="199" y="1200"/>
      <point x="307" y="1200" type="curve" smooth="yes"/>
      <point x="309" y="1200" type="line" smooth="yes"/>
      <point x="416" y="1200"/>
      <point x="505" y="1112"/>
      <point x="505" y="1004" type="curve" smooth="yes"/>
      <point x="505" y="910" type="line" smooth="yes"/>
      <point x="505" y="811"/>
      <point x="430" y="729"/>
    </contour>
    <contour>
      <point x="111" y="196" type="curve" smooth="yes"/>
      <point x="111" y="205"/>
      <point x="104" y="212"/>
      <point x="95" y="212" type="curve" smooth="yes"/>
      <point x="86" y="212"/>
      <point x="79" y="205"/>
      <point x="79" y="196" type="curve" smooth="yes"/>
      <point x="79" y="71"/>
      <point x="181" y="-32"/>
      <point x="307" y="-32" type="curve" smooth="yes"/>
      <point x="309" y="-32" type="line" smooth="yes"/>
      <point x="434" y="-32"/>
      <point x="537" y="71"/>
      <point x="537" y="196" type="curve" smooth="yes"/>
      <point x="537" y="486" type="line" smooth="yes"/>
      <point x="537" y="612"/>
      <point x="434" y="714"/>
      <point x="309" y="714" type="curve" smooth="yes"/>
      <point x="300" y="714"/>
      <point x="293" y="707"/>
      <point x="293" y="698" type="curve" smooth="yes"/>
      <point x="293" y="689"/>
      <point x="300" y="682"/>
      <point x="309" y="682" type="curve" smooth="yes"/>
      <point x="416" y="682"/>
      <point x="505" y="594"/>
      <point x="505" y="486" type="curve" smooth="yes"/>
      <point x="505" y="196" type="line" smooth="yes"/>
      <point x="505" y="89"/>
      <point x="416" y="0"/>
      <point x="309" y="0" type="curve" smooth="yes"/>
      <point x="307" y="0" type="line" smooth="yes"/>
      <point x="199" y="0"/>
      <point x="111" y="89"/>
    </contour>
  </outline>
</glyph>
<glyph name="seven" format="1">
  <advance width="616.0"/>
  <unicode hex="0037"/>
  <outline>
    <contour>
      <point x="96" y="1200" type="line" smooth="yes"/>
      <point x="87" y="1200"/>
      <point x="80" y="1193"/>
      <point x="80" y="1184" type="curve" smooth="yes"/>
      <point x="80" y="1175"/>
      <point x="87" y="1168"/>
      <point x="96" y="1168" type="curve" smooth="yes"/>
      <point x="520" y="1168" type="line"/>
      <point x="504" y="1187" type="line"/>
      <point x="292" y="19" type="line" smooth="yes"/>
      <point x="291" y="10"/>
      <point x="297" y="2"/>
      <point x="305" y="0" type="curve" smooth="yes"/>
      <point x="314" y="-1"/>
      <point x="322" y="5"/>
      <point x="324" y="13" type="curve" smooth="yes"/>
      <point x="536" y="1181" type="line" smooth="yes"/>
      <point x="538" y="1192"/>
      <point x="531" y="1200"/>
      <point x="520" y="1200" type="curve" smooth="yes"/>
    </contour>
  </outline>
</glyph>
<glyph name="eight" format="1">
  <advance width="616.0"/>
  <unicode hex="0038"/>
  <outline>
    <contour>
      <point x="329" y="705" type="curve" smooth="yes"/>
      <point x="321" y="704"/>
      <point x="314" y="696"/>
      <point x="315" y="687" type="curve" smooth="yes"/>
      <point x="316" y="679"/>
      <point x="324" y="672"/>
      <point x="333" y="673" type="curve" smooth="yes"/>
      <point x="447" y="685"/>
      <point x="538" y="782"/>
      <point x="538" y="900" type="curve" smooth="yes"/>
      <point x="538" y="1004" type="line" smooth="yes"/>
      <point x="538" y="1130"/>
      <point x="435" y="1232"/>
      <point x="310" y="1232" type="curve" smooth="yes"/>
      <point x="308" y="1232" type="line" smooth="yes"/>
      <point x="182" y="1232"/>
      <point x="80" y="1130"/>
      <point x="80" y="1004" type="curve" smooth="yes"/>
      <point x="80" y="900" type="line" smooth="yes"/>
      <point x="80" y="774"/>
      <point x="182" y="672"/>
      <point x="308" y="672" type="curve" smooth="yes"/>
      <point x="310" y="672" type="line" smooth="yes"/>
      <point x="417" y="672"/>
      <point x="506" y="584"/>
      <point x="506" y="476" type="curve" smooth="yes"/>
      <point x="506" y="196" type="line" smooth="yes"/>
      <point x="506" y="89"/>
      <point x="417" y="0"/>
      <point x="310" y="0" type="curve" smooth="yes"/>
      <point x="308" y="0" type="line" smooth="yes"/>
      <point x="200" y="0"/>
      <point x="112" y="89"/>
      <point x="112" y="196" type="curve" smooth="yes"/>
      <point x="112" y="476" type="line" smooth="yes"/>
      <point x="112" y="578"/>
      <point x="190" y="662"/>
      <point x="289" y="671" type="curve" smooth="yes"/>
      <point x="298" y="672"/>
      <point x="305" y="680"/>
      <point x="304" y="688" type="curve" smooth="yes"/>
      <point x="303" y="697"/>
      <point x="295" y="704"/>
      <point x="287" y="703" type="curve" smooth="yes"/>
      <point x="170" y="692"/>
      <point x="80" y="594"/>
      <point x="80" y="476" type="curve" smooth="yes"/>
      <point x="80" y="196" type="line" smooth="yes"/>
      <point x="80" y="71"/>
      <point x="182" y="-32"/>
      <point x="308" y="-32" type="curve" smooth="yes"/>
      <point x="310" y="-32" type="line" smooth="yes"/>
      <point x="435" y="-32"/>
      <point x="538" y="71"/>
      <point x="538" y="196" type="curve" smooth="yes"/>
      <point x="538" y="476" type="line" smooth="yes"/>
      <point x="538" y="602"/>
      <point x="435" y="704"/>
      <point x="310" y="704" type="curve" smooth="yes"/>
      <point x="308" y="704" type="line" smooth="yes"/>
      <point x="200" y="704"/>
      <point x="112" y="792"/>
      <point x="112" y="900" type="curve" smooth="yes"/>
      <point x="112" y="1004" type="line" smooth="yes"/>
      <point x="112" y="1112"/>
      <point x="200" y="1200"/>
      <point x="308" y="1200" type="curve" smooth="yes"/>
      <point x="310" y="1200" type="line" smooth="yes"/>
      <point x="417" y="1200"/>
      <point x="506" y="1112"/>
      <point x="506" y="1004" type="curve" smooth="yes"/>
      <point x="506" y="900" type="line" smooth="yes"/>
      <point x="506" y="798"/>
      <point x="427" y="715"/>
    </contour>
  </outline>
</glyph>
<glyph name="Q" format="1">
  <advance width="616.0"/>
  <unicode hex="0051"/>
  <outline>
    <contour>
      <point x="536" y="1004" type="line" smooth="yes"/>
      <point x="536" y="1130"/>
      <point x="434" y="1232"/>
      <point x="308" y="1232" type="curve" smooth="yes"/>
      <point x="182" y="1232"/>
      <point x="80" y="1130"/>
      <point x="80" y="1004" type="curve" smooth="yes"/>
      <point x="80" y="196" type="line" smooth="yes"/>
      <point x="80" y="70"/>
      <point x="182" y="-32"/>
      <point x="308" y="-32" type="curve" smooth="yes"/>
      <point x="434" y="-32"/>
      <point x="536" y="70"/>
      <point x="536" y="196" type="curve" smooth="yes"/>
    </contour>
    <contour>
      <point x="504" y="1004" type="curve" smooth="yes"/>
      <point x="504" y="196" type="line" smooth="yes"/>
      <point x="504" y="88"/>
      <point x="416" y="0"/>
      <point x="308" y="0" type="curve" smooth="yes"/>
      <point x="200" y="0"/>
      <point x="112" y="88"/>
      <point x="112" y="196" type="curve" smooth="yes"/>
      <point x="112" y="1004" type="line" smooth="yes"/>
      <point x="112" y="1112"/>
      <point x="200" y="1200"/>
      <point x="308" y="1200" type="curve" smooth="yes"/>
      <point x="416" y="1200"/>
      <point x="504" y="1112"/>
    </contour>
    <contour>
      <point x="384" y="152" type="line" smooth="yes"/>
      <point x="378" y="158"/>
      <point x="368" y="158"/>
      <point x="362" y="152" type="curve" smooth="yes"/>
      <point x="356" y="146"/>
      <point x="356" y="136"/>
      <point x="362" y="130" type="curve" smooth="yes"/>
      <point x="517" y="-25" type="line" smooth="yes"/>
      <point x="523" y="-31"/>
      <point x="533" y="-31"/>
      <point x="539" y="-25" type="curve" smooth="yes"/>
      <point x="545" y="-19"/>
      <point x="545" y="-9"/>
      <point x="539" y="-3" type="curve" smooth="yes"/>
    </contour>
  </outline>
</glyph>
<glyph name="T" format="1">
  <advance width="616.0"/>
  <unicode hex="0054"/>
  <outline>
    <contour>
      <point x="96" y="1200" type="line" smooth="yes"/>
      <point x="87" y="1200"/>
      <point x="80" y="1193"/>
      <point x="80" y="1184" type="curve" smooth="yes"/>
      <point x="80" y="1175"/>
      <point x="87" y="1168"/>
      <point x="96" y="1168" type="curve" smooth="yes"/>
      <point x="520" y="1168" type="line" smooth="yes"/>
      <point x="529" y="1168"/>
      <point x="536" y="1175"/>
      <point x="536" y="1184" type="curve" smooth="yes"/>
      <point x="536" y="1193"/>
      <point x="529" y="1200"/>
      <point x="520" y="1200" type="curve" smooth="yes"/>
    </contour>
    <contour>
      <point x="324" y="1174" type="line" smooth="yes"/>
      <point x="324" y="1183"/>
      <point x="317" y="1190"/>
      <point x="308" y="1190" type="curve" smooth="yes"/>
      <point x="299" y="1190"/>
      <point x="292" y="1183"/>
      <point x="292" y="1174" type="curve" smooth="yes"/>
      <point x="292" y="16" type="line" smooth="yes"/>
      <point x="292" y="7"/>
      <point x="299" y="0"/>
      <point x="308" y="0" type="curve" smooth="yes"/>
      <point x="317" y="0"/>
      <point x="324" y="7"/>
      <point x="324" y="16" type="curve" smooth="yes"/>
    </contour>
  </outline>
</glyph>
<glyph name="X" format="1">
  <advance width="618.0"/>
  <unicode hex="0058"/>
  <outline>
    <contour>
      <point x="81" y="21" type="line" smooth="yes"/>
      <point x="78" y="13"/>
      <point x="82" y="4"/>
      <point x="91" y="1" type="curve" smooth="yes"/>
      <point x="99" y="-2"/>
      <point x="108" y="2"/>
      <point x="111" y="11" type="curve" smooth="yes"/>
      <point x="535" y="1179" type="line" smooth="yes"/>
      <point x="538" y="1187"/>
      <point x="534" y="1196"/>
      <point x="525" y="1199" type="curve" smooth="yes"/>
      <point x="517" y="1202"/>
      <point x="508" y="1198"/>
      <point x="505" y="1189" type="curve" smooth="yes"/>
    </contour>
    <contour>
      <point x="505" y="11" type="line" smooth="yes"/>
      <point x="508" y="2"/>
      <point x="517" y="-2"/>
      <point x="525" y="1" type="curve" smooth="yes"/>
      <point x="534" y="4"/>
      <point x="538" y="13"/>
      <point x="535" y="21" type="curve" smooth="yes"/>
      <point x="111" y="1189" type="line" smooth="yes"/>
      <point x="108" y="1198"/>
      <point x="99" y="1202"/>
      <point x="91" y="1199" type="curve" smooth="yes"/>
      <point x="82" y="1196"/>
      <point x="78" y="1187"/>
      <point x="81" y="1179" type="curve" smooth="yes"/>
    </contour>
  </outline>
</glyph>
<glyph name="a" format="1">
  <advance width="616.0"/>
  <unicode hex="0061"/>
  <outline>
    <contour>
      <point x="504" y="32" type="line" smooth="yes"/>
      <point x="504" y="23"/>
      <point x="511" y="16"/>
      <point x="520" y="16" type="curve" smooth="yes"/>
      <point x="529" y="16"/>
      <point x="536" y="23"/>
      <point x="536" y="32" type="curve" smooth="yes"/>
      <point x="536" y="640" type="line" smooth="yes"/>
      <point x="536" y="766"/>
      <point x="434" y="868"/>
      <point x="308" y="868" type="curve" smooth="yes"/>
      <point x="182" y="868"/>
      <point x="80" y="766"/>
      <point x="80" y="640" type="curve" smooth="yes"/>
      <point x="80" y="212" type="line" smooth="yes"/>
      <point x="80" y="86"/>
      <point x="182" y="-16"/>
      <point x="308" y="-16" type="curve" smooth="yes"/>
      <point x="435" y="-16"/>
      <point x="536" y="88"/>
      <point x="536" y="186" type="curve" smooth="yes"/>
      <point x="536" y="195"/>
      <point x="529" y="202"/>
      <point x="520" y="202" type="curve" smooth="yes"/>
      <point x="511" y="202"/>
      <point x="504" y="195"/>
      <point x="504" y="186" type="curve" smooth="yes"/>
      <point x="504" y="102"/>
      <point x="415" y="16"/>
      <point x="308" y="16" type="curve" smooth="yes"/>
      <point x="200" y="16"/>
      <point x="112" y="104"/>
      <point x="112" y="212" type="curve" smooth="yes"/>
      <point x="112" y="640" type="line" smooth="yes"/>
      <point x="112" y="748"/>
      <point x="200" y="836"/>
      <point x="308" y="836" type="curve" smooth="yes"/>
      <point x="416" y="836"/>
      <point x="504" y="748"/>
      <point x="504" y="640" type="curve" smooth="yes"/>
    </contour>
  </outline>
</glyph>
<glyph name="e" format="1">
  <advance width="616.0"/>
  <unicode hex="0065"/>
  <outline>
    <contour>
      <point x="536" y="212" type="curve" smooth="yes"/>
      <point x="536" y="221"/>
      <point x="529" y="228"/>
      <point x="520" y="228" type="curve" smooth="yes"/>
      <point x="511" y="228"/>
      <point x="504" y="221"/>
      <point x="504" y="212" type="curve" smooth="yes"/>
      <point x="504" y="104"/>
      <point x="416" y="16"/>
      <point x="308" y="16" type="curve" smooth="yes"/>
      <point x="200" y="16"/>
      <point x="112" y="104"/>
      <point x="112" y="212" type="curve" smooth="yes"/>
      <point x="112" y="640" type="line" smooth="yes"/>
      <point x="112" y="748"/>
      <point x="200" y="836"/>
      <point x="308" y="836" type="curve" smooth="yes"/>
      <point x="416" y="836"/>
      <point x="504" y="748"/>
      <point x="504" y="640" type="curve" smooth="yes"/>
      <point x="504" y="434" type="line"/>
      <point x="520" y="450" type="line"/>
      <point x="96" y="450" type="line" smooth="yes"/>
      <point x="87" y="450"/>
      <point x="80" y="443"/>
      <point x="80" y="434" type="curve" smooth="yes"/>
      <point x="80" y="425"/>
      <point x="87" y="418"/>
      <point x="96" y="418" type="curve" smooth="yes"/>
      <point x="520" y="418" type="line" smooth="yes"/>
      <point x="529" y="418"/>
      <point x="536" y="425"/>
      <point x="536" y="434" type="curve" smooth="yes"/>
      <point x="536" y="640" type="line" smooth="yes"/>
      <point x="536" y="766"/>
      <point x="434" y="868"/>
      <point x="308" y="868" type="curve" smooth="yes"/>
      <point x="182" y="868"/>
      <point x="80" y="766"/>
      <point x="80" y="640" type="curve" smooth="yes"/>
      <point x="80" y="212" type="line" smooth="yes"/>
      <point x="80" y="86"/>
      <point x="182" y="-16"/>
      <point x="308" y="-16" type="curve" smooth="yes"/>
      <point x="434" y="-16"/>
      <point x="536" y="86"/>
    </contour>
  </outline>
</glyph>
<glyph name="m" format="1">
  <advance width="758.0"/>
  <unicode hex="006D"/>
  <outline>
    <contour>
      <point x="112" y="820" type="line" smooth="yes"/>
      <point x="112" y="829"/>
      <point x="105" y="836"/>
      <point x="96" y="836" type="curve" smooth="yes"/>
      <point x="87" y="836"/>
      <point x="80" y="829"/>
      <point x="80" y="820" type="curve" smooth="yes"/>
      <point x="80" y="16" type="line" smooth="yes"/>
      <point x="80" y="7"/>
      <point x="87" y="0"/>
      <point x="96" y="0" type="curve" smooth="yes"/>
      <point x="105" y="0"/>
      <point x="112" y="7"/>
      <point x="112" y="16" type="curve" smooth="yes"/>
    </contour>
    <contour>
      <point x="369" y="736" type="curve" smooth="yes"/>
      <point x="366" y="728"/>
      <point x="372" y="719"/>
      <point x="380" y="717" type="curve" smooth="yes"/>
      <point x="388" y="714"/>
      <point x="397" y="720"/>
      <point x="399" y="728" type="curve" smooth="yes"/>
      <point x="414" y="781"/>
      <point x="462" y="820"/>
      <point x="520" y="820" type="curve" smooth="yes"/>
      <point x="589" y="820"/>
      <point x="645" y="764"/>
      <point x="645" y="695" type="curve" smooth="yes"/>
      <point x="645" y="16" type="line" smooth="yes"/>
      <point x="645" y="7"/>
      <point x="652" y="0"/>
      <point x="661" y="0" type="curve" smooth="yes"/>
      <point x="670" y="0"/>
      <point x="677" y="7"/>
      <point x="677" y="16" type="curve" smooth="yes"/>
      <point x="677" y="695" type="line" smooth="yes"/>
      <point x="677" y="782"/>
      <point x="607" y="852"/>
      <point x="520" y="852" type="curve" smooth="yes"/>
      <point x="448" y="852"/>
      <point x="386" y="803"/>
    </contour>
    <contour>
      <point x="86" y="736" type="curve" smooth="yes"/>
      <point x="83" y="728"/>
      <point x="89" y="719"/>
      <point x="97" y="717" type="curve" smooth="yes"/>
      <point x="105" y="714"/>
      <point x="114" y="720"/>
      <point x="116" y="728" type="curve" smooth="yes"/>
      <point x="131" y="781"/>
      <point x="179" y="820"/>
      <point x="237" y="820" type="curve" smooth="yes"/>
      <point x="306" y="820"/>
      <point x="363" y="764"/>
      <point x="363" y="695" type="curve" smooth="yes"/>
      <point x="363" y="16" type="line" smooth="yes"/>
      <point x="363" y="7"/>
      <point x="370" y="0"/>
      <point x="379" y="0" type="curve" smooth="yes"/>
      <point x="388" y="0"/>
      <point x="395" y="7"/>
      <point x="395" y="16" type="curve" smooth="yes"/>
      <point x="395" y="695" type="line" smooth="yes"/>
      <point x="395" y="782"/>
      <point x="324" y="852"/>
      <point x="237" y="852" type="curve" smooth="yes"/>
      <point x="165" y="852"/>
      <point x="103" y="803"/>
    </contour>
  </outline>
</glyph>
<glyph name="r" format="1">
  <advance width="364.0"/>
  <unicode hex="0072"/>
  <outline>
    <contour>
      <point x="308" y="836" type="curve" smooth="yes"/>
      <point x="317" y="836"/>
      <point x="324" y="843"/>
      <point x="324" y="852" type="curve" smooth="yes"/>
      <point x="324" y="861"/>
      <point x="317" y="868"/>
      <point x="308" y="868" type="curve" smooth="yes"/>
      <point x="207" y="868"/>
      <point x="121" y="802"/>
      <point x="92" y="711" type="curve" smooth="yes"/>
      <point x="89" y="703"/>
      <point x="94" y="693"/>
      <point x="102" y="691" type="curve" smooth="yes"/>
      <point x="110" y="688"/>
      <point x="120" y="693"/>
      <point x="122" y="701" type="curve" smooth="yes"/>
      <point x="147" y="780"/>
      <point x="221" y="836"/>
    </contour>
    <contour>
      <point x="112" y="820" type="line" smooth="yes"/>
      <point x="112" y="829"/>
      <point x="105" y="836"/>
      <point x="96" y="836" type="curve" smooth="yes"/>
      <point x="87" y="836"/>
      <point x="80" y="829"/>
      <point x="80" y="820" type="curve" smooth="yes"/>
      <point x="80" y="16" type="line" smooth="yes"/>
      <point x="80" y="7"/>
      <point x="87" y="0"/>
      <point x="96" y="0" type="curve" smooth="yes"/>
      <point x="105" y="0"/>
      <point x="112" y="7"/>
      <point x="112" y="16" type="curve" smooth="yes"/>
    </contour>
  </outline>
</glyph>
<glyph name="s" format="1">
  <advance width="629"/>
  <unicode hex="0073"/>
  <outline>
    <contour>
      <point x="112" y="217" type="curve" smooth="yes"/>
      <point x="112" y="226"/>
      <point x="105" y="233"/>
      <point x="96" y="233" type="curve" smooth="yes"/>
      <point x="87" y="233"/>
      <point x="80" y="226"/>
      <point x="80" y="217" type="curve" smooth="yes"/>
      <point x="80" y="89"/>
      <point x="185" y="-16"/>
      <point x="314" y="-16" type="curve" smooth="yes"/>
      <point x="316" y="-16" type="line" smooth="yes"/>
      <point x="444" y="-16"/>
      <point x="549" y="89"/>
      <point x="549" y="217" type="curve" smooth="yes"/>
      <point x="549" y="218" type="line" smooth="yes"/>
      <point x="549" y="347"/>
      <point x="444" y="452"/>
      <point x="316" y="452" type="curve" smooth="yes"/>
      <point x="314" y="452" type="line" smooth="yes"/>
      <point x="209" y="452"/>
      <point x="122" y="540"/>
      <point x="122" y="645" type="curve" smooth="yes"/>
      <point x="122" y="749"/>
      <point x="209" y="836"/>
      <point x="314" y="836" type="curve" smooth="yes"/>
      <point x="316" y="836" type="line" smooth="yes"/>
      <point x="423" y="836"/>
      <point x="510" y="749"/>
      <point x="510" y="645" type="curve" smooth="yes"/>
      <point x="510" y="636"/>
      <point x="517" y="629"/>
      <point x="526" y="629" type="curve" smooth="yes"/>
      <point x="535" y="629"/>
      <point x="542" y="636"/>
      <point x="542" y="645" type="curve" smooth="yes"/>
      <point x="542" y="767"/>
      <point x="441" y="868"/>
      <point x="316" y="868" type="curve" smooth="yes"/>
      <point x="314" y="868" type="line" smooth="yes"/>
      <point x="191" y="868"/>
      <point x="90" y="767"/>
      <point x="90" y="645" type="curve" smooth="yes"/>
      <point x="90" y="522"/>
      <point x="191" y="420"/>
      <point x="314" y="420" type="curve" smooth="yes"/>
      <point x="316" y="420" type="line" smooth="yes"/>
      <point x="426" y="420"/>
      <point x="517" y="329"/>
      <point x="517" y="218" type="curve" smooth="yes"/>
      <point x="517" y="217" type="line" smooth="yes"/>
      <point x="517" y="107"/>
      <point x="426" y="16"/>
      <point x="316" y="16" type="curve" smooth="yes"/>
      <point x="314" y="16" type="line" smooth="yes"/>
      <point x="203" y="16"/>
      <point x="112" y="107"/>
    </contour>
  </outline>
</glyph>
<glyph name="t" format="1">
  <advance width="404.0"/>
  <unicode hex="0074"/>
  <outline>
    <contour>
      <point x="112" y="1034" type="line" smooth="yes"/>
      <point x="112" y="1043"/>
      <point x="105" y="1050"/>
      <point x="96" y="1050" type="curve" smooth="yes"/>
      <point x="87" y="1050"/>
      <point x="80" y="1043"/>
      <point x="80" y="1034" type="curve" smooth="yes"/>
      <point x="80" y="212" type="line" smooth="yes"/>
      <point x="80" y="86"/>
      <point x="182" y="-16"/>
      <point x="308" y="-16" type="curve" smooth="yes"/>
      <point x="310" y="-16" type="line" smooth="yes"/>
      <point x="319" y="-16"/>
      <point x="326" y="-9"/>
      <point x="326" y="0" type="curve" smooth="yes"/>
      <point x="326" y="9"/>
      <point x="319" y="16"/>
      <point x="310" y="16" type="curve" smooth="yes"/>
      <point x="308" y="16" type="line" smooth="yes"/>
      <point x="200" y="16"/>
      <point x="112" y="104"/>
      <point x="112" y="212" type="curve" smooth="yes"/>
    </contour>
    <contour>
      <point x="101" y="685" type="line" smooth="yes"/>
      <point x="92" y="685"/>
      <point x="85" y="678"/>
      <point x="85" y="669" type="curve" smooth="yes"/>
      <point x="85" y="660"/>
      <point x="92" y="653"/>
      <point x="101" y="653" type="curve" smooth="yes"/>
      <point x="236" y="653" type="line" smooth="yes"/>
      <point x="245" y="653"/>
      <point x="252" y="660"/>
      <point x="252" y="669" type="curve" smooth="yes"/>
      <point x="252" y="678"/>
      <point x="245" y="685"/>
      <point x="236" y="685" type="curve" smooth="yes"/>
    </contour>
  </outline>
</glyph>
<glyph name="x" format="1">
  <advance width="616.0"/>
  <unicode hex="0078"/>
  <outline>
    <contour>
      <point x="534" y="829" type="line" smooth="yes"/>
      <point x="538" y="836"/>
      <point x="535" y="846"/>
      <point x="527" y="850" type="curve" smooth="yes"/>
      <point x="520" y="854"/>
      <point x="510" y="851"/>
      <point x="506" y="843" type="curve" smooth="yes"/>
      <point x="82" y="23" type="line" smooth="yes"/>
      <point x="78" y="16"/>
      <point x="81" y="6"/>
      <point x="89" y="2" type="curve" smooth="yes"/>
      <point x="96" y="-2"/>
      <point x="106" y="1"/>
      <point x="110" y="9" type="curve" smooth="yes"/>
    </contour>
    <contour>
      <point x="506" y="9" type="line" smooth="yes"/>
      <point x="510" y="1"/>
      <point x="520" y="-2"/>
      <point x="527" y="2" type="curve" smooth="yes"/>
      <point x="535" y="6"/>
      <point x="538" y="16"/>
      <point x="534" y="23" type="curve" smooth="yes"/>
      <point x="110" y="843" type="line" smooth="yes"/>
      <point x="106" y="851"/>
      <point x="96" y="854"/>
      <point x="89" y="850" type="curve" smooth="yes"/>
      <point x="81" y="846"/>
      <point x="78" y="836"/>
      <point x="82" y="829" type="curve" smooth="yes"/>
    </contour>
  </outline>
</glyph>
<glyph name="cent" format="1">
  <advance width="616.0"/>
  <unicode hex="00A2"/>
  <outline>
    <contour>
      <point x="536" y="212" type="curve" smooth="yes"/>
      <point x="536" y="221"/>
      <point x="529" y="228"/>
      <point x="520" y="228" type="curve" smooth="yes"/>
      <point x="511" y="228"/>
      <point x="504" y="221"/>
      <point x="504" y="212" type="curve" smooth="yes"/>
      <point x="504" y="104"/>
      <point x="416" y="16"/>
      <point x="308" y="16" type="curve" smooth="yes"/>
      <point x="200" y="16"/>
      <point x="112" y="104"/>
      <point x="112" y="212" type="curve" smooth="yes"/>
      <point x="112" y="640" type="line" smooth="yes"/>
      <point x="112" y="748"/>
      <point x="200" y="836"/>
      <point x="308" y="836" type="curve" smooth="yes"/>
      <point x="416" y="836"/>
      <point x="504" y="748"/>
      <point x="504" y="640" type="curve" smooth="yes"/>
      <point x="504" y="631"/>
      <point x="511" y="624"/>
      <point x="520" y="624" type="curve" smooth="yes"/>
      <point x="529" y="624"/>
      <point x="536" y="631"/>
      <point x="536" y="640" type="curve" smooth="yes"/>
      <point x="536" y="766"/>
      <point x="434" y="868"/>
      <point x="308" y="868" type="curve" smooth="yes"/>
      <point x="182" y="868"/>
      <point x="80" y="766"/>
      <point x="80" y="640" type="curve" smooth="yes"/>
      <point x="80" y="212" type="line" smooth="yes"/>
      <point x="80" y="86"/>
      <point x="182" y="-16"/>
      <point x="308" y="-16" type="curve" smooth="yes"/>
      <point x="434" y="-16"/>
      <point x="536" y="86"/>
    </contour>
    <contour>
      <point x="324" y="920" type="line" smooth="yes"/>
      <point x="324" y="929"/>
      <point x="317" y="936"/>
      <point x="308" y="936" type="curve" smooth="yes"/>
      <point x="299" y="936"/>
      <point x="292" y="929"/>
      <point x="292" y="920" type="curve" smooth="yes"/>
      <point x="292" y="-80" type="line" smooth="yes"/>
      <point x="292" y="-89"/>
      <point x="299" y="-96"/>
      <point x="308" y="-96" type="curve" smooth="yes"/>
      <point x="317" y="-96"/>
      <point x="324" y="-89"/>
      <point x="324" y="-80" type="curve" smooth="yes"/>
    </contour>
  </outline>
</glyph>
<glyph name="section" format="1">
  <advance width="1000.0"/>
  <unicode hex="00A7"/>
  <outline>
    <contour>
      <point x="514" y="924" type="curve" smooth="yes"/>
      <point x="514" y="915"/>
      <point x="521" y="908"/>
      <point x="530" y="908" type="curve" smooth="yes"/>
      <point x="539" y="908"/>
      <point x="546" y="915"/>
      <point x="546" y="924" type="curve" smooth="yes"/>
      <point x="546" y="1050"/>
      <point x="444" y="1152"/>
      <point x="318" y="1152" type="curve" smooth="yes"/>
      <point x="308" y="1152" type="line" smooth="yes"/>
      <point x="182" y="1152"/>
      <point x="80" y="1050"/>
      <point x="80" y="924" type="curve" smooth="yes"/>
      <point x="80" y="888" type="line" smooth="yes"/>
      <point x="80" y="762"/>
      <point x="182" y="660"/>
      <point x="308" y="660" type="curve" smooth="yes"/>
      <point x="318" y="660" type="line" smooth="yes"/>
      <point x="426" y="660"/>
      <point x="514" y="572"/>
      <point x="514" y="464" type="curve" smooth="yes"/>
      <point x="514" y="316" type="line" smooth="yes"/>
      <point x="514" y="208"/>
      <point x="426" y="120"/>
      <point x="318" y="120" type="curve" smooth="yes"/>
      <point x="316" y="120" type="line" smooth="yes"/>
      <point x="307" y="120"/>
      <point x="300" y="113"/>
      <point x="300" y="104" type="curve" smooth="yes"/>
      <point x="300" y="95"/>
      <point x="307" y="88"/>
      <point x="316" y="88" type="curve" smooth="yes"/>
      <point x="318" y="88" type="line" smooth="yes"/>
      <point x="444" y="88"/>
      <point x="546" y="190"/>
      <point x="546" y="316" type="curve" smooth="yes"/>
      <point x="546" y="464" type="line" smooth="yes"/>
      <point x="546" y="590"/>
      <point x="444" y="692"/>
      <point x="318" y="692" type="curve" smooth="yes"/>
      <point x="308" y="692" type="line" smooth="yes"/>
      <point x="200" y="692"/>
      <point x="112" y="780"/>
      <point x="112" y="888" type="curve" smooth="yes"/>
      <point x="112" y="924" type="line" smooth="yes"/>
      <point x="112" y="1032"/>
      <point x="200" y="1120"/>
      <point x="308" y="1120" type="curve" smooth="yes"/>
      <point x="318" y="1120" type="line" smooth="yes"/>
      <point x="426" y="1120"/>
      <point x="514" y="1032"/>
    </contour>
    <contour>
      <point x="112" y="-144" type="curve" smooth="yes"/>
      <point x="112" y="-135"/>
      <point x="105" y="-128"/>
      <point x="96" y="-128" type="curve" smooth="yes"/>
      <point x="87" y="-128"/>
      <point x="80" y="-135"/>
      <point x="80" y="-144" type="curve" smooth="yes"/>
      <point x="80" y="-270"/>
      <point x="182" y="-372"/>
      <point x="308" y="-372" type="curve" smooth="yes"/>
      <point x="318" y="-372" type="line" smooth="yes"/>
      <point x="444" y="-372"/>
      <point x="546" y="-270"/>
      <point x="546" y="-144" type="curve" smooth="yes"/>
      <point x="546" y="-108" type="line" smooth="yes"/>
      <point x="546" y="18"/>
      <point x="444" y="120"/>
      <point x="318" y="120" type="curve" smooth="yes"/>
      <point x="308" y="120" type="line" smooth="yes"/>
      <point x="200" y="120"/>
      <point x="112" y="208"/>
      <point x="112" y="316" type="curve" smooth="yes"/>
      <point x="112" y="464" type="line" smooth="yes"/>
      <point x="112" y="572"/>
      <point x="200" y="660"/>
      <point x="308" y="660" type="curve" smooth="yes"/>
      <point x="310" y="660" type="line" smooth="yes"/>
      <point x="319" y="660"/>
      <point x="326" y="667"/>
      <point x="326" y="676" type="curve" smooth="yes"/>
      <point x="326" y="685"/>
      <point x="319" y="692"/>
      <point x="310" y="692" type="curve" smooth="yes"/>
      <point x="308" y="692" type="line" smooth="yes"/>
      <point x="182" y="692"/>
      <point x="80" y="590"/>
      <point x="80" y="464" type="curve" smooth="yes"/>
      <point x="80" y="316" type="line" smooth="yes"/>
      <point x="80" y="190"/>
      <point x="182" y="88"/>
      <point x="308" y="88" type="curve" smooth="yes"/>
      <point x="318" y="88" type="line" smooth="yes"/>
      <point x="426" y="88"/>
      <point x="514" y="0"/>
      <point x="514" y="-108" type="curve" smooth="yes"/>
      <point x="514" y="-144" type="line" smooth="yes"/>
      <point x="514" y="-252"/>
      <point x="426" y="-340"/>
      <point x="318" y="-340" type="curve" smooth="yes"/>
      <point x="308" y="-340" type="line" smooth="yes"/>
      <point x="200" y="-340"/>
      <point x="112" y="-252"/>
    </contour>
  </outline>
</glyph>
<glyph name="copyright" format="1">
  <advance width="616.0"/>
  <unicode hex="00A9"/>
  <outline>
    <contour>
      <point x="416" y="852" type="curve" smooth="yes"/>
      <point x="416" y="844"/>
      <point x="424" y="836"/>
      <point x="432" y="836" type="curve" smooth="yes"/>
      <point x="440" y="836"/>
      <point x="448" y="844"/>
      <point x="448" y="852" type="curve" smooth="yes"/>
      <point x="448" y="926"/>
      <point x="384" y="990"/>
      <point x="310" y="990" type="curve" smooth="yes"/>
      <point x="234" y="990"/>
      <point x="170" y="926"/>
      <point x="170" y="852" type="curve" smooth="yes"/>
      <point x="170" y="354" type="line" smooth="yes"/>
      <point x="170" y="278"/>
      <point x="234" y="214"/>
      <point x="310" y="214" type="curve" smooth="yes"/>
      <point x="384" y="214"/>
      <point x="448" y="278"/>
      <point x="448" y="354" type="curve" smooth="yes"/>
      <point x="448" y="362"/>
      <point x="440" y="370"/>
      <point x="432" y="370" type="curve" smooth="yes"/>
      <point x="424" y="370"/>
      <point x="416" y="362"/>
      <point x="416" y="354" type="curve" smooth="yes"/>
      <point x="416" y="294"/>
      <point x="368" y="246"/>
      <point x="310" y="246" type="curve" smooth="yes"/>
      <point x="250" y="246"/>
      <point x="202" y="294"/>
      <point x="202" y="354" type="curve" smooth="yes"/>
      <point x="202" y="852" type="line" smooth="yes"/>
      <point x="202" y="910"/>
      <point x="250" y="958"/>
      <point x="310" y="958" type="curve" smooth="yes"/>
      <point x="368" y="958"/>
      <point x="416" y="910"/>
    </contour>
    <component base="O"/>
  </outline>
</glyph>
<glyph name="ordfeminine" format="1">
  <advance width="498"/>
  <unicode hex="00AA"/>
  <outline>
    <contour>
      <point x="280" y="1022" type="line" smooth="yes"/>
      <point x="354.0" y="1022.0"/>
      <point x="418.0" y="1086.0"/>
      <point x="418" y="1162" type="curve" smooth="yes"/>
      <point x="418" y="1302" type="line" smooth="yes"/>
      <point x="418.0" y="1376.0"/>
      <point x="354.0" y="1440.0"/>
      <point x="280" y="1440" type="curve" smooth="yes"/>
      <point x="220" y="1440" type="line" smooth="yes"/>
      <point x="211.0" y="1440.0"/>
      <point x="204.0" y="1433.0"/>
      <point x="204" y="1424" type="curve" smooth="yes"/>
      <point x="204.0" y="1415.0"/>
      <point x="211.0" y="1408.0"/>
      <point x="220" y="1408" type="curve" smooth="yes"/>
      <point x="280" y="1408" type="line" smooth="yes"/>
      <point x="338.0" y="1408.0"/>
      <point x="386.0" y="1360.0"/>
      <point x="386" y="1302" type="curve" smooth="yes"/>
      <point x="386" y="1279" type="line"/>
      <point x="360" y="1310"/>
      <point x="322.0" y="1330.0"/>
      <point x="280" y="1330" type="curve" smooth="yes"/>
      <point x="220" y="1330" type="line" smooth="yes"/>
      <point x="144.0" y="1330.0"/>
      <point x="80.0" y="1266.0"/>
      <point x="80" y="1192" type="curve" smooth="yes"/>
      <point x="80" y="1162" type="line" smooth="yes"/>
      <point x="80.0" y="1086.0"/>
      <point x="144.0" y="1022.0"/>
      <point x="220" y="1022" type="curve" smooth="yes"/>
    </contour>
    <contour>
      <point x="220" y="1054" type="line" smooth="yes"/>
      <point x="160.0" y="1054.0"/>
      <point x="112.0" y="1102.0"/>
      <point x="112" y="1162" type="curve" smooth="yes"/>
      <point x="112" y="1192" type="line" smooth="yes"/>
      <point x="112.0" y="1250.0"/>
      <point x="160.0" y="1298.0"/>
      <point x="220" y="1298" type="curve" smooth="yes"/>
      <point x="280" y="1298" type="line" smooth="yes"/>
      <point x="338.0" y="1298.0"/>
      <point x="386.0" y="1250.0"/>
      <point x="386" y="1192" type="curve" smooth="yes"/>
      <point x="386" y="1162" type="line" smooth="yes"/>
      <point x="386.0" y="1102.0"/>
      <point x="338.0" y="1054.0"/>
      <point x="280" y="1054" type="curve" smooth="yes"/>
    </contour>
  </outline>
</glyph>
<glyph name="registered" format="1">
  <advance width="500"/>
  <unicode hex="00AE"/>
  <outline>
    <contour>
      <point x="171" y="246" type="line" smooth="yes"/>
      <point x="171" y="237"/>
      <point x="178" y="230"/>
      <point x="187" y="230" type="curve" smooth="yes"/>
      <point x="196" y="230"/>
      <point x="203" y="237"/>
      <point x="203" y="246" type="curve" smooth="yes"/>
      <point x="203" y="975" type="line"/>
      <point x="187" y="959" type="line"/>
      <point x="310" y="959" type="line" smooth="yes"/>
      <point x="368" y="959"/>
      <point x="416" y="911"/>
      <point x="416" y="853" type="curve" smooth="yes"/>
      <point x="416" y="723" type="line" smooth="yes"/>
      <point x="416" y="665"/>
      <point x="368" y="617"/>
      <point x="310" y="617" type="curve" smooth="yes"/>
      <point x="200" y="616" type="line" smooth="yes"/>
      <point x="191" y="616"/>
      <point x="184" y="608"/>
      <point x="184" y="600" type="curve" smooth="yes"/>
      <point x="184" y="591"/>
      <point x="192" y="584"/>
      <point x="200" y="584" type="curve" smooth="yes"/>
      <point x="310" y="585" type="line" smooth="yes"/>
      <point x="386" y="585"/>
      <point x="448" y="647"/>
      <point x="448" y="723" type="curve" smooth="yes"/>
      <point x="448" y="853" type="line" smooth="yes"/>
      <point x="448" y="929"/>
      <point x="386" y="991"/>
      <point x="310" y="991" type="curve" smooth="yes"/>
      <point x="187" y="991" type="line" smooth="yes"/>
      <point x="178" y="991"/>
      <point x="171" y="984"/>
      <point x="171" y="975" type="curve" smooth="yes"/>
    </contour>
    <contour>
      <point x="407" y="239" type="line"/>
      <point x="410" y="230"/>
      <point x="419" y="226"/>
      <point x="427" y="229" type="curve" smooth="yes"/>
      <point x="436" y="232"/>
      <point x="440" y="241"/>
      <point x="437" y="249" type="curve" smooth="yes"/>
      <point x="312" y="598" type="line" smooth="yes"/>
      <point x="309" y="607"/>
      <point x="300" y="611"/>
      <point x="292" y="608" type="curve" smooth="yes"/>
      <point x="283" y="605"/>
      <point x="279" y="596"/>
      <point x="282" y="588" type="curve"/>
    </contour>
    <component base="O"/>
  </outline>
</glyph>
<glyph name="acute" format="1">
  <advance width="318.0"/>
  <unicode hex="00B4"/>
  <outline>
    <contour>
      <point x="233" y="1389" type="line" smooth="yes"/>
      <point x="239" y="1395"/>
      <point x="239" y="1405"/>
      <point x="233" y="1411" type="curve" smooth="yes"/>
      <point x="227" y="1417"/>
      <point x="217" y="1417"/>
      <point x="211" y="1411" type="curve" smooth="yes"/>
      <point x="87" y="1289" type="line" smooth="yes"/>
      <point x="81" y="1283"/>
      <point x="81" y="1273"/>
      <point x="87" y="1267" type="curve" smooth="yes"/>
      <point x="93" y="1261"/>
      <point x="103" y="1261"/>
      <point x="109" y="1267" type="curve" smooth="yes"/>
    </contour>
  </outline>
</glyph>
<glyph name="paragraph" format="1">
  <advance width="576"/>
  <unicode hex="00B6"/>
  <outline>
    <contour>
      <point x="428" y="16" type="line" smooth="yes"/>
      <point x="428" y="7"/>
      <point x="435" y="0"/>
      <point x="444" y="0" type="curve" smooth="yes"/>
      <point x="453" y="0"/>
      <point x="460" y="7"/>
      <point x="460" y="16" type="curve" smooth="yes"/>
      <point x="460" y="1184" type="line" smooth="yes"/>
      <point x="460" y="1193"/>
      <point x="453" y="1200"/>
      <point x="444" y="1200" type="curve" smooth="yes"/>
      <point x="435" y="1200"/>
      <point x="428" y="1193"/>
      <point x="428" y="1184" type="curve" smooth="yes"/>
    </contour>
    <contour>
      <point x="338" y="16" type="line" smooth="yes"/>
      <point x="338" y="7"/>
      <point x="345" y="0"/>
      <point x="354" y="0" type="curve" smooth="yes"/>
      <point x="363" y="0"/>
      <point x="370" y="7"/>
      <point x="370" y="16" type="curve" smooth="yes"/>
      <point x="370" y="1184" type="line" smooth="yes"/>
      <point x="370" y="1193"/>
      <point x="363" y="1200"/>
      <point x="354" y="1200" type="curve" smooth="yes"/>
      <point x="345" y="1200"/>
      <point x="338" y="1193"/>
      <point x="338" y="1184" type="curve" smooth="yes"/>
    </contour>
    <contour>
      <point x="480" y="1184" type="line" smooth="yes"/>
      <point x="489" y="1184"/>
      <point x="496" y="1191"/>
      <point x="496" y="1200" type="curve" smooth="yes"/>
      <point x="496" y="1209"/>
      <point x="489" y="1216"/>
      <point x="480" y="1216" type="curve" smooth="yes"/>
      <point x="270" y="1216" type="line" smooth="yes"/>
      <point x="165" y="1216"/>
      <point x="80" y="1131"/>
      <point x="80" y="1026" type="curve" smooth="yes"/>
      <point x="80" y="921"/>
      <point x="165" y="836"/>
      <point x="270" y="836" type="curve" smooth="yes"/>
      <point x="347" y="836" type="line" smooth="yes"/>
      <point x="356" y="836"/>
      <point x="363" y="843"/>
      <point x="363" y="852" type="curve" smooth="yes"/>
      <point x="363" y="861"/>
      <point x="356" y="868"/>
      <point x="347" y="868" type="curve" smooth="yes"/>
      <point x="270" y="868" type="line" smooth="yes"/>
      <point x="183" y="868"/>
      <point x="112" y="939"/>
      <point x="112" y="1026" type="curve" smooth="yes"/>
      <point x="112" y="1113"/>
      <point x="183" y="1184"/>
      <point x="270" y="1184" type="curve" smooth="yes"/>
    </contour>
  </outline>
</glyph>
<glyph name="ordmasculine" format="1">
  <advance width="498"/>
  <unicode hex="00BA"/>
  <outline>
    <contour>
      <point x="220" y="1054" type="line"/>
      <point x="160" y="1054"/>
      <point x="112" y="1102"/>
      <point x="112" y="1162" type="curve"/>
      <point x="112" y="1302" type="line"/>
      <point x="112" y="1360"/>
      <point x="160" y="1408"/>
      <point x="220" y="1408" type="curve"/>
      <point x="280" y="1408" type="line"/>
      <point x="338" y="1408"/>
      <point x="386" y="1360"/>
      <point x="386" y="1302" type="curve"/>
      <point x="386" y="1162" type="line"/>
      <point x="386" y="1102"/>
      <point x="338" y="1054"/>
      <point x="280" y="1054" type="curve"/>
    </contour>
    <contour>
      <point x="418" y="1302" type="line"/>
      <point x="418" y="1376"/>
      <point x="354" y="1440"/>
      <point x="280" y="1440" type="curve"/>
      <point x="280" y="1440"/>
      <point x="220" y="1440"/>
      <point x="220" y="1440" type="curve"/>
      <point x="144" y="1440"/>
      <point x="80" y="1376"/>
      <point x="80" y="1302" type="curve"/>
      <point x="80" y="1302" type="line"/>
      <point x="80" y="1162" type="line"/>
      <point x="80" y="1086"/>
      <point x="144" y="1022"/>
      <point x="220" y="1022" type="curve"/>
      <point x="280" y="1022" type="line"/>
      <point x="354" y="1022"/>
      <point x="418" y="1086"/>
      <point x="418" y="1162" type="curve"/>
    </contour>
  </outline>
</glyph>
<glyph name="Thorn" format="1">
  <advance width="616.0"/>
  <unicode hex="00DE"/>
  <outline>
    <contour>
      <point x="80" y="-160" type="line" smooth="yes"/>
      <point x="80" y="-169"/>
      <point x="87" y="-176"/>
      <point x="96" y="-176" type="curve" smooth="yes"/>
      <point x="105" y="-176"/>
      <point x="112" y="-169"/>
      <point x="112" y="-160" type="curve" smooth="yes"/>
      <point x="112" y="1200" type="line" smooth="yes"/>
      <point x="112" y="1209"/>
      <point x="105" y="1216"/>
      <point x="96" y="1216" type="curve" smooth="yes"/>
      <point x="87" y="1216"/>
      <point x="80" y="1209"/>
      <point x="80" y="1200" type="curve" smooth="yes"/>
    </contour>
    <contour>
      <point x="106" y="868" type="line" smooth="yes"/>
      <point x="97" y="868"/>
      <point x="90" y="861"/>
      <point x="90" y="852" type="curve" smooth="yes"/>
      <point x="90" y="843"/>
      <point x="97" y="836"/>
      <point x="106" y="836" type="curve" smooth="yes"/>
      <point x="308" y="836" type="line" smooth="yes"/>
      <point x="416" y="836"/>
      <point x="504" y="748"/>
      <point x="504" y="640" type="curve" smooth="yes"/>
      <point x="504" y="212" type="line" smooth="yes"/>
      <point x="504" y="104"/>
      <point x="416" y="16"/>
      <point x="308" y="16" type="curve" smooth="yes"/>
      <point x="106" y="16" type="line" smooth="yes"/>
      <point x="97" y="16"/>
      <point x="90" y="9"/>
      <point x="90" y="0" type="curve" smooth="yes"/>
      <point x="90" y="-9"/>
      <point x="97" y="-16"/>
      <point x="106" y="-16" type="curve" smooth="yes"/>
      <point x="308" y="-16" type="line" smooth="yes"/>
      <point x="434" y="-16"/>
      <point x="536" y="86"/>
      <point x="536" y="212" type="curve" smooth="yes"/>
      <point x="536" y="640" type="line" smooth="yes"/>
      <point x="536" y="766"/>
      <point x="434" y="868"/>
      <point x="308" y="868" type="curve" smooth="yes"/>
    </contour>
  </outline>
</glyph>
<glyph name="ae" format="1">
  <advance width="1040"/>
  <unicode hex="00E6"/>
  <outline>
    <contour>
      <point x="504" y="32" type="line" smooth="yes"/>
      <point x="504" y="23"/>
      <point x="511" y="16"/>
      <point x="520" y="16" type="curve" smooth="yes"/>
      <point x="529" y="16"/>
      <point x="536" y="23"/>
      <point x="536" y="32" type="curve" smooth="yes"/>
      <point x="536" y="640" type="line" smooth="yes"/>
      <point x="536" y="766"/>
      <point x="434" y="868"/>
      <point x="308" y="868" type="curve" smooth="yes"/>
      <point x="182" y="868"/>
      <point x="80" y="766"/>
      <point x="80" y="640" type="curve" smooth="yes"/>
      <point x="80" y="212" type="line" smooth="yes"/>
      <point x="80" y="86"/>
      <point x="182" y="-16"/>
      <point x="308" y="-16" type="curve" smooth="yes"/>
      <point x="435" y="-16"/>
      <point x="536" y="88"/>
      <point x="536" y="186" type="curve" smooth="yes"/>
      <point x="536" y="195"/>
      <point x="529" y="202"/>
      <point x="520" y="202" type="curve" smooth="yes"/>
      <point x="511" y="202"/>
      <point x="504" y="195"/>
      <point x="504" y="186" type="curve" smooth="yes"/>
      <point x="504" y="102"/>
      <point x="415" y="16"/>
      <point x="308" y="16" type="curve" smooth="yes"/>
      <point x="200" y="16"/>
      <point x="112" y="104"/>
      <point x="112" y="212" type="curve" smooth="yes"/>
      <point x="112" y="640" type="line" smooth="yes"/>
      <point x="112" y="748"/>
      <point x="200" y="836"/>
      <point x="308" y="836" type="curve" smooth="yes"/>
      <point x="416" y="836"/>
      <point x="504" y="748"/>
      <point x="504" y="640" type="curve" smooth="yes"/>
    </contour>
    <contour>
      <point x="504" y="640" type="curve" smooth="yes"/>
      <point x="504" y="631"/>
      <point x="511" y="624"/>
      <point x="520" y="624" type="curve" smooth="yes"/>
      <point x="529" y="624"/>
      <point x="536" y="631"/>
      <point x="536" y="640" type="curve" smooth="yes"/>
      <point x="536" y="748"/>
      <point x="624" y="836"/>
      <point x="732" y="836" type="curve" smooth="yes"/>
      <point x="840" y="836"/>
      <point x="928" y="748"/>
      <point x="928" y="640" type="curve" smooth="yes"/>
      <point x="928" y="434" type="line"/>
      <point x="944" y="450" type="line"/>
      <point x="520" y="450" type="line" smooth="yes"/>
      <point x="511" y="450"/>
      <point x="504" y="443"/>
      <point x="504" y="434" type="curve" smooth="yes"/>
      <point x="504" y="425"/>
      <point x="511" y="418"/>
      <point x="520" y="418" type="curve" smooth="yes"/>
      <point x="944" y="418" type="line" smooth="yes"/>
      <point x="953" y="418"/>
      <point x="960" y="425"/>
      <point x="960" y="434" type="curve" smooth="yes"/>
      <point x="960" y="640" type="line" smooth="yes"/>
      <point x="960" y="766"/>
      <point x="858" y="868"/>
      <point x="732" y="868" type="curve" smooth="yes"/>
      <point x="606" y="868"/>
      <point x="504" y="766"/>
    </contour>
    <contour>
      <point x="960" y="212" type="curve" smooth="yes"/>
      <point x="960" y="221"/>
      <point x="953" y="228"/>
      <point x="944" y="228" type="curve" smooth="yes"/>
      <point x="935" y="228"/>
      <point x="928" y="221"/>
      <point x="928" y="212" type="curve" smooth="yes"/>
      <point x="928" y="104"/>
      <point x="840" y="16"/>
      <point x="732" y="16" type="curve" smooth="yes"/>
      <point x="624" y="16"/>
      <point x="536" y="104"/>
      <point x="536" y="212" type="curve" smooth="yes"/>
      <point x="536" y="221"/>
      <point x="529" y="228"/>
      <point x="520" y="228" type="curve" smooth="yes"/>
      <point x="511" y="228"/>
      <point x="504" y="221"/>
      <point x="504" y="212" type="curve" smooth="yes"/>
      <point x="504" y="86"/>
      <point x="606" y="-16"/>
      <point x="732" y="-16" type="curve" smooth="yes"/>
      <point x="858" y="-16"/>
      <point x="960" y="86"/>
    </contour>
  </outline>
</glyph>
<glyph name="OE" format="1">
  <advance width="976"/>
  <unicode hex="0152"/>
  <outline>
    <contour>
      <point x="880" y="0" type="line" smooth="yes"/>
      <point x="889" y="0"/>
      <point x="896" y="7"/>
      <point x="896" y="16" type="curve" smooth="yes"/>
      <point x="896" y="25"/>
      <point x="889" y="32"/>
      <point x="880" y="32" type="curve" smooth="yes"/>
      <point x="520" y="32" type="line"/>
      <point x="536" y="16" type="line"/>
      <point x="536" y="1184" type="line"/>
      <point x="520" y="1168" type="line"/>
      <point x="880" y="1168" type="line" smooth="yes"/>
      <point x="889" y="1168"/>
      <point x="896" y="1175"/>
      <point x="896" y="1184" type="curve" smooth="yes"/>
      <point x="896" y="1193"/>
      <point x="889" y="1200"/>
      <point x="880" y="1200" type="curve" smooth="yes"/>
      <point x="520" y="1200" type="line" smooth="yes"/>
      <point x="511" y="1200"/>
      <point x="504" y="1193"/>
      <point x="504" y="1184" type="curve" smooth="yes"/>
      <point x="504" y="16" type="line" smooth="yes"/>
      <point x="504" y="7"/>
      <point x="511" y="0"/>
      <point x="520" y="0" type="curve" smooth="yes"/>
    </contour>
    <contour>
      <point x="531" y="562" type="line" smooth="yes"/>
      <point x="522" y="562"/>
      <point x="515" y="555"/>
      <point x="515" y="546" type="curve" smooth="yes"/>
      <point x="515" y="537"/>
      <point x="522" y="530"/>
      <point x="531" y="530" type="curve" smooth="yes"/>
      <point x="700" y="530" type="line" smooth="yes"/>
      <point x="709" y="530"/>
      <point x="716" y="537"/>
      <point x="716" y="546" type="curve" smooth="yes"/>
      <point x="716" y="555"/>
      <point x="709" y="562"/>
      <point x="700" y="562" type="curve" smooth="yes"/>
    </contour>
    <contour>
      <point x="499" y="1031" type="curve" smooth="yes"/>
      <point x="501" y="1023"/>
      <point x="510" y="1017"/>
      <point x="519" y="1019" type="curve" smooth="yes"/>
      <point x="527" y="1021"/>
      <point x="533" y="1030"/>
      <point x="531" y="1039" type="curve" smooth="yes"/>
      <point x="507" y="1140"/>
      <point x="417" y="1216"/>
      <point x="308" y="1216" type="curve" smooth="yes"/>
      <point x="182" y="1216"/>
      <point x="80" y="1114"/>
      <point x="80" y="988" type="curve" smooth="yes"/>
      <point x="80" y="212" type="line" smooth="yes"/>
      <point x="80" y="86"/>
      <point x="182" y="-16"/>
      <point x="308" y="-16" type="curve" smooth="yes"/>
      <point x="417" y="-16"/>
      <point x="508" y="60"/>
      <point x="531" y="162" type="curve" smooth="yes"/>
      <point x="532" y="170"/>
      <point x="527" y="179"/>
      <point x="518" y="181" type="curve" smooth="yes"/>
      <point x="510" y="182"/>
      <point x="501" y="177"/>
      <point x="499" y="168" type="curve" smooth="yes"/>
      <point x="480" y="82"/>
      <point x="401" y="16"/>
      <point x="308" y="16" type="curve" smooth="yes"/>
      <point x="200" y="16"/>
      <point x="112" y="104"/>
      <point x="112" y="212" type="curve" smooth="yes"/>
      <point x="112" y="988" type="line" smooth="yes"/>
      <point x="112" y="1096"/>
      <point x="200" y="1184"/>
      <point x="308" y="1184" type="curve" smooth="yes"/>
      <point x="401" y="1184"/>
      <point x="479" y="1118"/>
    </contour>
  </outline>
</glyph>
<glyph name="florin" format="1">
  <advance width="364.0"/>
  <unicode hex="0192"/>
  <outline>
    <contour>
      <point x="308" y="1184" type="curve" smooth="yes"/>
      <point x="317" y="1184"/>
      <point x="324" y="1191"/>
      <point x="324" y="1200" type="curve" smooth="yes"/>
      <point x="324" y="1209"/>
      <point x="317" y="1216"/>
      <point x="308" y="1216" type="curve" smooth="yes"/>
      <point x="182" y="1216"/>
      <point x="80" y="1114"/>
      <point x="80" y="988" type="curve" smooth="yes"/>
      <point x="80" y="16" type="line" smooth="yes"/>
      <point x="80" y="-43"/>
      <point x="31" y="-92"/>
      <point x="-28" y="-92" type="curve" smooth="yes"/>
      <point x="-37" y="-92"/>
      <point x="-44" y="-99"/>
      <point x="-44" y="-108" type="curve" smooth="yes"/>
      <point x="-44" y="-117"/>
      <point x="-37" y="-124"/>
      <point x="-28" y="-124" type="curve" smooth="yes"/>
      <point x="49" y="-124"/>
      <point x="112" y="-61"/>
      <point x="112" y="16" type="curve" smooth="yes"/>
      <point x="112" y="988" type="line" smooth="yes"/>
      <point x="112" y="1096"/>
      <point x="200" y="1184"/>
    </contour>
    <contour>
      <point x="236" y="653" type="line" smooth="yes"/>
      <point x="245" y="653"/>
      <point x="252" y="660"/>
      <point x="252" y="669" type="curve" smooth="yes"/>
      <point x="252" y="678"/>
      <point x="245" y="685"/>
      <point x="236" y="685" type="curve" smooth="yes"/>
      <point x="96" y="685" type="line" smooth="yes"/>
      <point x="87" y="685"/>
      <point x="80" y="678"/>
      <point x="80" y="669" type="curve" smooth="yes"/>
      <point x="80" y="660"/>
      <point x="87" y="653"/>
      <point x="96" y="653" type="curve" smooth="yes"/>
    </contour>
  </outline>
</glyph>
<glyph name="dotlessj" format="1">
  <advance width="196.0"/>
  <unicode hex="0237"/>
  <outline>
    <contour>
      <point x="23" y="-123" type="curve" smooth="yes"/>
      <point x="17" y="-129"/>
      <point x="17" y="-139"/>
      <point x="23" y="-145" type="curve" smooth="yes"/>
      <point x="29" y="-151"/>
      <point x="39" y="-151"/>
      <point x="45" y="-145" type="curve" smooth="yes"/>
      <point x="86" y="-104"/>
      <point x="112" y="-47"/>
      <point x="112" y="16" type="curve" smooth="yes"/>
      <point x="112" y="836" type="line" smooth="yes"/>
      <point x="112" y="845"/>
      <point x="105" y="852"/>
      <point x="96" y="852" type="curve" smooth="yes"/>
      <point x="87" y="852"/>
      <point x="80" y="845"/>
      <point x="80" y="836" type="curve" smooth="yes"/>
      <point x="80" y="16" type="line" smooth="yes"/>
      <point x="80" y="-39"/>
      <point x="58" y="-88"/>
    </contour>
  </outline>
</glyph>
<glyph name="breve" format="1">
  <advance width="292.0"/>
  <unicode hex="02D8"/>
  <outline>
    <contour>
      <point x="112" y="1328" type="curve" smooth="yes"/>
      <point x="112" y="1337"/>
      <point x="105" y="1344"/>
      <point x="96" y="1344" type="curve" smooth="yes"/>
      <point x="87" y="1344"/>
      <point x="80" y="1337"/>
      <point x="80" y="1328" type="curve" smooth="yes"/>
      <point x="80" y="1292"/>
      <point x="110" y="1262"/>
      <point x="146" y="1262" type="curve" smooth="yes"/>
      <point x="183" y="1262"/>
      <point x="212" y="1292"/>
      <point x="212" y="1328" type="curve" smooth="yes"/>
      <point x="212" y="1337"/>
      <point x="205" y="1344"/>
      <point x="196" y="1344" type="curve" smooth="yes"/>
      <point x="187" y="1344"/>
      <point x="180" y="1337"/>
      <point x="180" y="1328" type="curve" smooth="yes"/>
      <point x="180" y="1310"/>
      <point x="165" y="1294"/>
      <point x="146" y="1294" type="curve" smooth="yes"/>
      <point x="128" y="1294"/>
      <point x="112" y="1310"/>
    </contour>
  </outline>
</glyph>
<glyph name="dotaccent" format="1">
  <advance width="200.0"/>
  <unicode hex="02D9"/>
  <outline>
    <contour>
      <point x="100" y="1298" type="curve" smooth="yes"/>
      <point x="110" y="1298"/>
      <point x="120" y="1306"/>
      <point x="120" y="1318" type="curve" smooth="yes"/>
      <point x="120" y="1328"/>
      <point x="110" y="1338"/>
      <point x="100" y="1338" type="curve" smooth="yes"/>
      <point x="88" y="1338"/>
      <point x="80" y="1328"/>
      <point x="80" y="1318" type="curve" smooth="yes"/>
      <point x="80" y="1306"/>
      <point x="88" y="1298"/>
    </contour>
  </outline>
</glyph>
<glyph name="Delta" format="1">
  <advance width="843"/>
  <unicode hex="0394"/>
  <outline>
    <contour>
      <point x="746" y="32" type="line"/>
      <point x="96" y="32" type="line"/>
      <point x="111" y="10" type="line"/>
      <point x="436" y="860" type="line"/>
      <point x="406" y="860" type="line"/>
      <point x="731" y="10" type="line"/>
    </contour>
    <contour>
      <point x="746" y="0" type="line" smooth="yes"/>
      <point x="759" y="0"/>
      <point x="766" y="10"/>
      <point x="761" y="22" type="curve" smooth="yes"/>
      <point x="436" y="872" type="line" smooth="yes"/>
      <point x="428" y="893"/>
      <point x="414" y="893"/>
      <point x="406" y="872" type="curve" smooth="yes"/>
      <point x="81" y="22" type="line" smooth="yes"/>
      <point x="76" y="10"/>
      <point x="83" y="0"/>
      <point x="96" y="0" type="curve" smooth="yes"/>
    </contour>
  </outline>
</glyph>
<glyph name="Omega" format="1">
  <advance width="616"/>
  <unicode hex="03A9"/>
  <outline>
    <contour>
      <point x="536" y="-76" type="line" smooth="yes"/>
      <point x="545" y="-76"/>
      <point x="552" y="-69"/>
      <point x="552" y="-60" type="curve" smooth="yes"/>
      <point x="552" y="-51"/>
      <point x="545" y="-44"/>
      <point x="536" y="-44" type="curve" smooth="yes"/>
      <point x="398" y="-44" type="line"/>
      <point x="414" y="-60" type="line"/>
      <point x="414" y="152" type="line"/>
      <point x="398" y="136" type="line"/>
      <point x="475" y="136"/>
      <point x="538" y="199"/>
      <point x="538" y="276" type="curve" smooth="yes"/>
      <point x="536" y="1004" type="line" smooth="yes"/>
      <point x="536" y="1130"/>
      <point x="434" y="1232"/>
      <point x="308" y="1232" type="curve" smooth="yes"/>
      <point x="182" y="1232"/>
      <point x="80" y="1130"/>
      <point x="80" y="1004" type="curve" smooth="yes"/>
      <point x="80" y="276" type="line" smooth="yes"/>
      <point x="80" y="199"/>
      <point x="143" y="136"/>
      <point x="220" y="136" type="curve"/>
      <point x="204" y="152" type="line"/>
      <point x="204" y="-60" type="line"/>
      <point x="220" y="-44" type="line"/>
      <point x="80" y="-44" type="line" smooth="yes"/>
      <point x="71" y="-44"/>
      <point x="64" y="-51"/>
      <point x="64" y="-60" type="curve" smooth="yes"/>
      <point x="64" y="-69"/>
      <point x="71" y="-76"/>
      <point x="80" y="-76" type="curve" smooth="yes"/>
      <point x="220" y="-76" type="line" smooth="yes"/>
      <point x="229" y="-76"/>
      <point x="236" y="-69"/>
      <point x="236" y="-60" type="curve" smooth="yes"/>
      <point x="236" y="152" type="line" smooth="yes"/>
      <point x="236" y="161"/>
      <point x="229" y="168"/>
      <point x="220" y="168" type="curve" smooth="yes"/>
      <point x="161" y="168"/>
      <point x="112" y="217"/>
      <point x="112" y="276" type="curve" smooth="yes"/>
      <point x="112" y="1004" type="line" smooth="yes"/>
      <point x="112" y="1112"/>
      <point x="200" y="1200"/>
      <point x="308" y="1200" type="curve" smooth="yes"/>
      <point x="416" y="1200"/>
      <point x="504" y="1112"/>
      <point x="504" y="1004" type="curve" smooth="yes"/>
      <point x="506" y="276" type="line" smooth="yes"/>
      <point x="506" y="217"/>
      <point x="457" y="168"/>
      <point x="398" y="168" type="curve" smooth="yes"/>
      <point x="389" y="168"/>
      <point x="382" y="161"/>
      <point x="382" y="152" type="curve" smooth="yes"/>
      <point x="382" y="-60" type="line" smooth="yes"/>
      <point x="382" y="-69"/>
      <point x="389" y="-76"/>
      <point x="398" y="-76" type="curve" smooth="yes"/>
    </contour>
  </outline>
</glyph>
<glyph name="endash" format="1">
  <advance width="1000"/>
  <unicode hex="2013"/>
  <outline>
    <contour>
      <point x="96" y="442" type="line" smooth="yes"/>
      <point x="87" y="442"/>
      <point x="80" y="435"/>
      <point x="80" y="426" type="curve" smooth="yes"/>
      <point x="80" y="417"/>
      <point x="87" y="410"/>
      <point x="96" y="410" type="curve" smooth="yes"/>
      <point x="904" y="410" type="line" smooth="yes"/>
      <point x="913" y="410"/>
      <point x="920" y="417"/>
      <point x="920" y="426" type="curve" smooth="yes"/>
      <point x="920" y="435"/>
      <point x="913" y="442"/>
      <point x="904" y="442" type="curve" smooth="yes"/>
    </contour>
  </outline>
</glyph>
<glyph name="guilsinglleft" format="1">
  <advance width="284"/>
  <unicode hex="2039"/>
  <outline>
    <contour>
      <point x="197" y="285" type="line" smooth="yes"/>
      <point x="203" y="279"/>
      <point x="213" y="279"/>
      <point x="219" y="285" type="curve" smooth="yes"/>
      <point x="225" y="291"/>
      <point x="225" y="301"/>
      <point x="219" y="307" type="curve" smooth="yes"/>
      <point x="85" y="439" type="line"/>
      <point x="85" y="417" type="line"/>
      <point x="219" y="549" type="line" smooth="yes"/>
      <point x="225" y="555"/>
      <point x="225" y="565"/>
      <point x="219" y="571" type="curve" smooth="yes"/>
      <point x="213" y="577"/>
      <point x="203" y="577"/>
      <point x="197" y="571" type="curve" smooth="yes"/>
      <point x="63" y="439" type="line" smooth="yes"/>
      <point x="56" y="433"/>
      <point x="56" y="423"/>
      <point x="63" y="417" type="curve" smooth="yes"/>
    </contour>
  </outline>
</glyph>
<glyph name="fraction" format="1">
  <advance width="808"/>
  <unicode hex="2044"/>
  <outline>
    <contour>
      <point x="2" y="12" type="line" smooth="yes"/>
      <point x="-3" y="4"/>
      <point x="-1" y="-6"/>
      <point x="6" y="-10" type="curve" smooth="yes"/>
      <point x="14" y="-15"/>
      <point x="24" y="-13"/>
      <point x="28" y="-6" type="curve" smooth="yes"/>
      <point x="806" y="1192" type="line" smooth="yes"/>
      <point x="811" y="1200"/>
      <point x="809" y="1210"/>
      <point x="802" y="1214" type="curve" smooth="yes"/>
      <point x="794" y="1219"/>
      <point x="784" y="1217"/>
      <point x="780" y="1210" type="curve" smooth="yes"/>
    </contour>
  </outline>
</glyph>
<glyph name="four.sup" format="1">
  <advance width="404"/>
  <unicode hex="2074"/>
  <outline>
    <contour>
      <point x="306" y="718" type="line" smooth="yes"/>
      <point x="315" y="718"/>
      <point x="322" y="725"/>
      <point x="322" y="734" type="curve" smooth="yes"/>
      <point x="322" y="743"/>
      <point x="315" y="750"/>
      <point x="306" y="750" type="curve" smooth="yes"/>
      <point x="96" y="750" type="line"/>
      <point x="112" y="730" type="line"/>
      <point x="218" y="1180" type="line"/>
      <point x="202" y="1168" type="line"/>
      <point x="308" y="1168" type="line"/>
      <point x="292" y="1184" type="line"/>
      <point x="292" y="600" type="line" smooth="yes"/>
      <point x="292" y="591"/>
      <point x="299" y="584"/>
      <point x="308" y="584" type="curve" smooth="yes"/>
      <point x="317" y="584"/>
      <point x="324" y="591"/>
      <point x="324" y="600" type="curve" smooth="yes"/>
      <point x="324" y="1184" type="line" smooth="yes"/>
      <point x="324" y="1193"/>
      <point x="317" y="1200"/>
      <point x="308" y="1200" type="curve" smooth="yes"/>
      <point x="202" y="1200" type="line" smooth="yes"/>
      <point x="195" y="1200"/>
      <point x="188" y="1194"/>
      <point x="186" y="1188" type="curve" smooth="yes"/>
      <point x="80" y="738" type="line" smooth="yes"/>
      <point x="78" y="727"/>
      <point x="85" y="718"/>
      <point x="96" y="718" type="curve" smooth="yes"/>
    </contour>
  </outline>
</glyph>
<glyph name="partialdiff" format="1">
  <advance width="616.0"/>
  <unicode hex="2202"/>
  <outline>
    <contour>
      <point x="504" y="656" type="curve" smooth="yes"/>
      <point x="504" y="647"/>
      <point x="511" y="640"/>
      <point x="520" y="640" type="curve" smooth="yes"/>
      <point x="529" y="640"/>
      <point x="536" y="647"/>
      <point x="536" y="656" type="curve" smooth="yes"/>
      <point x="536" y="782"/>
      <point x="434" y="884"/>
      <point x="308" y="884" type="curve" smooth="yes"/>
      <point x="182" y="884"/>
      <point x="80" y="782"/>
      <point x="80" y="656" type="curve" smooth="yes"/>
      <point x="80" y="196" type="line" smooth="yes"/>
      <point x="80" y="70"/>
      <point x="182" y="-32"/>
      <point x="308" y="-32" type="curve" smooth="yes"/>
      <point x="434" y="-32"/>
      <point x="536" y="70"/>
      <point x="536" y="196" type="curve" smooth="yes"/>
      <point x="536" y="984" type="line" smooth="yes"/>
      <point x="536" y="1110"/>
      <point x="434" y="1212"/>
      <point x="308" y="1212" type="curve" smooth="yes"/>
      <point x="299" y="1212"/>
      <point x="292" y="1205"/>
      <point x="292" y="1196" type="curve" smooth="yes"/>
      <point x="292" y="1187"/>
      <point x="299" y="1180"/>
      <point x="308" y="1180" type="curve" smooth="yes"/>
      <point x="416" y="1180"/>
      <point x="504" y="1092"/>
      <point x="504" y="984" type="curve" smooth="yes"/>
      <point x="504" y="196" type="line" smooth="yes"/>
      <point x="504" y="88"/>
      <point x="416" y="0"/>
      <point x="308" y="0" type="curve" smooth="yes"/>
      <point x="200" y="0"/>
      <point x="112" y="88"/>
      <point x="112" y="196" type="curve" smooth="yes"/>
      <point x="112" y="656" type="line" smooth="yes"/>
      <point x="112" y="764"/>
      <point x="200" y="852"/>
      <point x="308" y="852" type="curve" smooth="yes"/>
      <point x="416" y="852"/>
      <point x="504" y="764"/>
    </contour>
  </outline>
</glyph>
<glyph name="summation" format="1">
  <advance width="632"/>
  <unicode hex="2211"/>
  <outline>
    <contour>
      <point x="536" y="1168" type="line" smooth="yes"/>
      <point x="545" y="1168"/>
      <point x="552" y="1175"/>
      <point x="552" y="1184" type="curve" smooth="yes"/>
      <point x="552" y="1193"/>
      <point x="545" y="1200"/>
      <point x="536" y="1200" type="curve" smooth="yes"/>
      <point x="96" y="1200" type="line" smooth="yes"/>
      <point x="80" y="1200"/>
      <point x="74" y="1189"/>
      <point x="82" y="1176" type="curve" smooth="yes"/>
      <point x="434" y="590" type="line"/>
      <point x="434" y="606" type="line"/>
      <point x="82" y="24" type="line" smooth="yes"/>
      <point x="74" y="11"/>
      <point x="80" y="0"/>
      <point x="96" y="0" type="curve" smooth="yes"/>
      <point x="536" y="0" type="line" smooth="yes"/>
      <point x="545" y="0"/>
      <point x="552" y="7"/>
      <point x="552" y="16" type="curve" smooth="yes"/>
      <point x="552" y="25"/>
      <point x="545" y="32"/>
      <point x="536" y="32" type="curve" smooth="yes"/>
      <point x="96" y="32" type="line"/>
      <point x="110" y="8" type="line"/>
      <point x="462" y="590" type="line" smooth="yes"/>
      <point x="464" y="594"/>
      <point x="464" y="602"/>
      <point x="462" y="606" type="curve" smooth="yes"/>
      <point x="110" y="1192" type="line"/>
      <point x="96" y="1168" type="line"/>
    </contour>
  </outline>
</glyph>
<glyph name="radical" format="1">
  <advance width="651"/>
  <unicode hex="221A"/>
  <outline>
    <contour>
      <point x="112" y="855" type="line" smooth="yes"/>
      <point x="110" y="863"/>
      <point x="102" y="869"/>
      <point x="93" y="868" type="curve" smooth="yes"/>
      <point x="85" y="866"/>
      <point x="79" y="858"/>
      <point x="80" y="849" type="curve" smooth="yes"/>
      <point x="233" y="-19" type="line" smooth="yes"/>
      <point x="240" y="-57"/>
      <point x="258" y="-57"/>
      <point x="265" y="-19" type="curve" smooth="yes"/>
      <point x="477" y="1181" type="line"/>
      <point x="461" y="1168" type="line"/>
      <point x="635" y="1168" type="line" smooth="yes"/>
      <point x="644" y="1168"/>
      <point x="651" y="1175"/>
      <point x="651" y="1184" type="curve" smooth="yes"/>
      <point x="651" y="1193"/>
      <point x="644" y="1200"/>
      <point x="635" y="1200" type="curve" smooth="yes"/>
      <point x="461" y="1200" type="line" smooth="yes"/>
      <point x="454" y="1200"/>
      <point x="447" y="1194"/>
      <point x="445" y="1187" type="curve" smooth="yes"/>
      <point x="233" y="-13" type="line"/>
      <point x="265" y="-13" type="line"/>
    </contour>
  </outline>
</glyph>
<glyph name="infinity" format="1">
  <advance width="1248"/>
  <unicode hex="221E"/>
  <outline>
    <contour>
      <point x="612" y="567" type="curve" smooth="yes"/>
      <point x="606" y="560"/>
      <point x="607" y="550"/>
      <point x="614" y="545" type="curve" smooth="yes"/>
      <point x="621" y="539"/>
      <point x="631" y="540"/>
      <point x="636" y="547" type="curve" smooth="yes"/>
      <point x="673" y="592"/>
      <point x="727" y="617"/>
      <point x="786" y="617" type="curve" smooth="yes"/>
      <point x="840" y="617" type="line" smooth="yes"/>
      <point x="947" y="617"/>
      <point x="1036" y="528"/>
      <point x="1036" y="421" type="curve" smooth="yes"/>
      <point x="1036" y="313"/>
      <point x="947" y="225"/>
      <point x="840" y="225" type="curve" smooth="yes"/>
      <point x="816" y="225" type="line" smooth="yes"/>
      <point x="707" y="225"/>
      <point x="609" y="295"/>
      <point x="590" y="423" type="curve" smooth="yes"/>
      <point x="569" y="568"/>
      <point x="457" y="649"/>
      <point x="332" y="649" type="curve" smooth="yes"/>
      <point x="308" y="649" type="line" smooth="yes"/>
      <point x="182" y="649"/>
      <point x="80" y="546"/>
      <point x="80" y="421" type="curve" smooth="yes"/>
      <point x="80" y="295"/>
      <point x="182" y="193"/>
      <point x="308" y="193" type="curve" smooth="yes"/>
      <point x="362" y="193" type="line" smooth="yes"/>
      <point x="434" y="193"/>
      <point x="499" y="227"/>
      <point x="539" y="278" type="curve" smooth="yes"/>
      <point x="545" y="285"/>
      <point x="544" y="295"/>
      <point x="537" y="300" type="curve" smooth="yes"/>
      <point x="530" y="306"/>
      <point x="520" y="305"/>
      <point x="515" y="298" type="curve" smooth="yes"/>
      <point x="479" y="255"/>
      <point x="424" y="225"/>
      <point x="362" y="225" type="curve" smooth="yes"/>
      <point x="308" y="225" type="line" smooth="yes"/>
      <point x="200" y="225"/>
      <point x="112" y="313"/>
      <point x="112" y="421" type="curve" smooth="yes"/>
      <point x="112" y="528"/>
      <point x="200" y="617"/>
      <point x="308" y="617" type="curve" smooth="yes"/>
      <point x="332" y="617" type="line" smooth="yes"/>
      <point x="441" y="617"/>
      <point x="539" y="546"/>
      <point x="558" y="419" type="curve" smooth="yes"/>
      <point x="579" y="273"/>
      <point x="691" y="193"/>
      <point x="816" y="193" type="curve" smooth="yes"/>
      <point x="840" y="193" type="line" smooth="yes"/>
      <point x="965" y="193"/>
      <point x="1068" y="295"/>
      <point x="1068" y="421" type="curve" smooth="yes"/>
      <point x="1068" y="546"/>
      <point x="965" y="649"/>
      <point x="840" y="649" type="curve" smooth="yes"/>
      <point x="786" y="649" type="line" smooth="yes"/>
      <point x="717" y="649"/>
      <point x="655" y="620"/>
    </contour>
  </outline>
</glyph>
